<svg xmlns="http://www.w3.org/2000/svg" viewBox="0 0 512 512" fill="none">
  <path d="M256 0C114.6 0 0 114.6 0 256s114.6 256 256 256s256-114.6 256-256S397.4 0 256 0zM256 464c-114.7 0-208-93.31-208-208S141.3 48 256 48s208 93.31 208 208S370.7 464 256 464z" fill="#4F46E5"/>
  <path d="M256 152c-57.3 0-104 46.7-104 104c0 8.8 7.2 16 16 16s16-7.2 16-16c0-39.8 32.2-72 72-72c8.8 0 16-7.2 16-16S264.8 152 256 152z" fill="#4F46E5"/>
  <path d="M352 256c0 53-43 96-96 96s-96-43-96-96s43-96 96-96s96 43 96 96z" fill="#E0E7FF" stroke="#4F46E5" stroke-width="16"/>
  <path d="M278.8 365.8c0 12.8-10.2 23-23 23s-23-10.2-23-23s10.2-23 23-23S278.8 353 278.8 365.8z" fill="#4F46E5"/>
  <path d="M260 320h-8c-6.6 0-12-5.4-12-12v-88c0-6.6 5.4-12 12-12h8c6.6 0 12 5.4 12 12v88C272 314.6 266.6 320 260 320z" fill="#4F46E5"/>
  <path d="M332 128c-13.3 0-24 10.7-24 24s10.7 24 24 24s24-10.7 24-24S345.3 128 332 128z" fill="#a5b4fc"/>
  <path d="M180 128c-13.3 0-24 10.7-24 24s10.7 24 24 24s24-10.7 24-24S193.3 128 180 128z" fill="#a5b4fc"/>
  <path d="M400 310c-13.3 0-24 10.7-24 24s10.7 24 24 24s24-10.7 24-24S413.3 310 400 310z" fill="#a5b4fc"/>
  <path d="M112 310c-13.3 0-24 10.7-24 24s10.7 24 24 24s24-10.7 24-24S125.3 310 112 310z" fill="#a5b4fc"/>
</svg> 